<svg width="201" height="218" viewBox="0 0 201 218" fill="none" xmlns="http://www.w3.org/2000/svg">
<path d="M100.026 2.5L200.052 62V160.5L100.026 211L0 160.5V62L100.026 2.5Z" fill="#D87950"/>
<path d="M53.9634 174V43.0909H110.725C120.696 43.0909 129.07 44.4332 135.845 47.1179C142.664 49.8026 147.799 53.5952 151.25 58.4957C154.745 63.3963 156.492 69.1704 156.492 75.8182C156.492 80.6335 155.426 85.0227 153.296 88.9858C151.208 92.9489 148.267 96.2727 144.475 98.9574C140.682 101.599 136.25 103.432 131.179 104.455V105.733C136.804 105.946 141.918 107.374 146.52 110.016C151.122 112.615 154.787 116.216 157.515 120.818C160.242 125.378 161.605 130.747 161.605 136.926C161.605 144.085 159.73 150.456 155.98 156.038C152.273 161.621 146.989 166.01 140.128 169.206C133.267 172.402 125.086 174 115.583 174H53.9634ZM89.5032 145.619H106.122C112.088 145.619 116.563 144.511 119.546 142.295C122.529 140.037 124.02 136.713 124.02 132.324C124.02 129.256 123.317 126.656 121.911 124.526C120.505 122.395 118.502 120.776 115.902 119.668C113.345 118.56 110.256 118.006 106.634 118.006H89.5032V145.619ZM89.5032 96.017H104.077C107.188 96.017 109.936 95.527 112.323 94.5469C114.709 93.5668 116.563 92.1605 117.884 90.3281C119.247 88.4531 119.929 86.1733 119.929 83.4886C119.929 79.4403 118.48 76.3508 115.583 74.2202C112.685 72.0469 109.02 70.9602 104.588 70.9602H89.5032V96.017Z" fill="white"/>
<rect x="52.5259" y="43" width="37" height="131" fill="#D87950"/>
<path d="M88.3838 43.0909L85.06 133.091H55.9122L52.5884 43.0909H88.3838ZM70.4861 176.045C65.5429 176.045 61.3029 174.32 57.7659 170.868C54.2716 167.374 52.5458 163.134 52.5884 158.148C52.5458 153.29 54.2716 149.135 57.7659 145.683C61.3029 142.232 65.5429 140.506 70.4861 140.506C75.1736 140.506 79.3071 142.232 82.8867 145.683C86.5088 149.135 88.3412 153.29 88.3838 158.148C88.3412 161.472 87.4676 164.497 85.7631 167.224C84.1012 169.909 81.9279 172.061 79.2432 173.68C76.5586 175.257 73.6395 176.045 70.4861 176.045Z" fill="white"/>
<rect x="84.5259" y="43" width="10" height="28" fill="white"/>
<rect x="84.5259" y="96" width="5" height="22" fill="white"/>
</svg>
